<?xml version="1.0" encoding="UTF-8"?>
<svg id="Layer_1" xmlns="http://www.w3.org/2000/svg" version="1.1" viewBox="0 0 1000 565.83">
  <!-- Generator: Adobe Illustrator 29.4.0, SVG Export Plug-In . SVG Version: 2.1.0 Build 152)  -->
  <defs>
    <style>
      .st0 {
        fill: #70aa5f;
      }

      .st1 {
        fill: #69c;
      }
    </style>
  </defs>
  <polygon class="st1" points="251.91 5.91 219.7 5.91 446.64 560.01 478.85 560.01 251.91 5.91"/>
  <polygon class="st1" points="193.32 5.91 161.1 5.91 388.04 560.01 420.26 560.01 193.32 5.91"/>
  <polygon class="st1" points="134.73 5.91 102.51 5.91 329.45 560.01 361.67 560.01 134.73 5.91"/>
  <path class="st0" d="M99.38,19.18h-34.72v-1.96c0-3.39-2.74-6.13-6.13-6.13h-9.65c-3.39,0-6.13,2.74-6.13,6.13v23.74c0,3.39,2.74,6.13,6.13,6.13h9.65c3.39,0,6.13-2.74,6.13-6.13v-1.96h42.53l-7.81-19.83h0Z"/>
  <path class="st0" d="M114.54,59.48h-34.72v-1.96c0-3.39-2.74-6.13-6.13-6.13h-9.65c-3.39,0-6.13,2.74-6.13,6.13v23.74c0,3.39,2.74,6.13,6.13,6.13h9.65c3.39,0,6.13-2.74,6.13-6.13v-1.96h42.53l-7.81-19.83h0Z"/>
  <path class="st0" d="M131.6,99.79h-34.72v-1.96c0-3.39-2.74-6.13-6.13-6.13h-9.65c-3.39,0-6.13,2.74-6.13,6.13v23.74c0,3.39,2.74,6.13,6.13,6.13h9.65c3.39,0,6.13-2.74,6.13-6.13v-1.96h42.53l-7.81-19.83h0Z"/>
  <polygon class="st1" points="751.82 5.91 784.03 5.91 557.09 560.01 524.88 560.01 751.82 5.91"/>
  <polygon class="st1" points="810.41 5.91 842.63 5.91 615.69 560.01 583.47 560.01 810.41 5.91"/>
  <polygon class="st1" points="869 5.91 901.22 5.91 674.28 560.01 642.06 560.01 869 5.91"/>
  <path class="st0" d="M904.35,19.18h34.72v-1.96c0-3.39,2.74-6.13,6.13-6.13h9.65c3.39,0,6.13,2.74,6.13,6.13v23.74c0,3.39-2.74,6.13-6.13,6.13h-9.65c-3.39,0-6.13-2.74-6.13-6.13v-1.96h-42.53l7.81-19.83h0Z"/>
  <path class="st0" d="M889.19,59.48h34.72v-1.96c0-3.39,2.74-6.13,6.13-6.13h9.65c3.39,0,6.13,2.74,6.13,6.13v23.74c0,3.39-2.74,6.13-6.13,6.13h-9.65c-3.39,0-6.13-2.74-6.13-6.13v-1.96h-42.53l7.81-19.83h0Z"/>
  <path class="st0" d="M872.13,99.79h34.72v-1.96c0-3.39,2.74-6.13,6.13-6.13h9.65c3.39,0,6.13,2.74,6.13,6.13v23.74c0,3.39-2.74,6.13-6.13,6.13h-9.65c-3.39,0-6.13-2.74-6.13-6.13v-1.96h-42.53l7.81-19.83h0Z"/>
  <polygon class="st0" points="501.86 210.74 408.02 352.92 429.22 404.56 501.86 294.48 574.51 404.56 595.71 352.92 501.86 210.74"/>
</svg>